<?xml version="1.0" standalone="no"?>
<!DOCTYPE svg PUBLIC "-//W3C//DTD SVG 20010904//EN"
 "http://www.w3.org/TR/2001/REC-SVG-20010904/DTD/svg10.dtd">
<svg version="1.0" xmlns="http://www.w3.org/2000/svg"
 width="183.000000pt" height="65.000000pt" viewBox="0 0 183.000000 65.000000"
 preserveAspectRatio="xMidYMid meet">
<metadata>
Created by potrace 1.10, written by Peter Selinger 2001-2011
</metadata>
<g transform="translate(0.000000,65.000000) scale(0.100000,-0.100000)"
fill="#000000" stroke="none">
<path d="M1341 595 c81 -108 119 -290 72 -353 -11 -15 -34 -35 -51 -45 -26
-15 -37 -16 -71 -7 -58 15 -73 43 -69 126 3 65 2 67 -23 74 -15 4 -33 4 -40
-1 -10 -6 -5 -9 15 -9 25 0 28 -3 22 -26 -17 -66 -17 -83 -1 -113 30 -59 140
-89 204 -56 33 17 71 87 71 131 0 83 -57 229 -115 293 -54 59 -63 51 -14 -14z"/>
<path d="M496 610 c-32 -39 -32 -39 -1 -175 33 -145 32 -177 -2 -215 -36 -41
-103 -52 -134 -24 -20 17 -21 26 -16 101 5 67 3 82 -9 87 -27 10 -60 6 -80 -9
-18 -15 -16 -16 22 -10 l41 6 -7 -47 c-7 -45 -1 -99 14 -123 4 -6 21 -18 38
-27 65 -34 158 5 179 74 11 39 9 57 -26 221 -16 76 -14 104 13 134 14 16 16
16 34 0 21 -19 39 -9 17 11 -30 30 -55 28 -83 -4z"/>
<path d="M871 614 c-25 -31 -26 -60 -6 -134 20 -76 19 -87 -12 -98 -16 -6 -52
-20 -82 -32 l-53 -21 6 25 c9 37 -24 52 -75 37 -22 -7 -39 -17 -39 -23 0 -10
29 -7 63 7 26 11 22 -29 -5 -55 -18 -17 -19 -20 -5 -20 12 0 17 -8 17 -25 0
-102 132 -151 203 -77 38 40 47 73 37 134 -7 47 -6 55 12 69 22 17 11 34 -14
24 -11 -4 -18 8 -26 45 -17 71 -15 104 6 130 16 20 21 21 40 9 27 -17 43 -2
18 17 -30 21 -62 17 -85 -12z m23 -265 c15 -75 -4 -128 -54 -154 -71 -36 -120
-8 -123 70 l-2 47 60 22 c33 12 69 27 80 34 29 17 32 15 39 -19z"/>
<path d="M1262 538 c-18 -18 -14 -28 11 -28 23 0 47 17 47 32 0 12 -45 9 -58
-4z"/>
<path d="M1743 490 c-11 -5 -42 -38 -68 -74 -67 -94 -112 -120 -134 -78 -14
26 8 64 49 84 l35 17 -33 1 c-24 0 -42 -8 -63 -29 -33 -34 -37 -61 -11 -84 40
-36 88 -31 139 16 20 18 23 18 29 3 4 -10 -1 -25 -12 -37 -16 -17 -16 -22 -4
-29 8 -6 22 -10 30 -10 9 -1 -4 -18 -30 -41 -92 -83 -103 -134 -44 -193 20
-20 40 -36 46 -36 5 0 -7 15 -26 34 -61 57 -43 122 52 186 55 38 63 50 33 50
-28 0 -36 18 -17 39 15 17 15 20 -5 45 -19 24 -20 30 -8 53 17 32 68 75 83 70
6 -2 10 -24 9 -51 -1 -33 3 -46 13 -46 16 0 27 37 22 71 -4 28 -53 50 -85 39z"/>
<path d="M178 331 c-3 -139 -3 -139 -34 -178 -17 -21 -57 -53 -88 -72 -31 -18
-55 -36 -52 -38 9 -9 123 57 154 89 41 43 49 73 58 208 6 102 6 108 -14 119
-20 11 -21 9 -24 -128z"/>
</g>
</svg>
