<?xml version="1.0" standalone="no"?>
<!DOCTYPE svg PUBLIC "-//W3C//DTD SVG 20010904//EN"
 "http://www.w3.org/TR/2001/REC-SVG-20010904/DTD/svg10.dtd">
<svg version="1.0" xmlns="http://www.w3.org/2000/svg"
 width="369.000000pt" height="111.000000pt" viewBox="0 0 369.000000 111.000000"
 preserveAspectRatio="xMidYMid meet">
<metadata>
Created by potrace 1.16, written by Peter Selinger 2001-2019
</metadata>
<g transform="translate(0.000000,111.000000) scale(0.100000,-0.100000)"
fill="#000000" stroke="none">
<path d="M90 995 l0 -85 190 0 191 0 -3 83 -3 82 -187 3 -188 2 0 -85z"/>
<path d="M640 1069 c0 -6 83 -128 185 -270 l185 -259 2 -242 3 -243 95 0 95 0
5 245 5 245 111 155 c61 85 114 161 118 168 6 9 -19 12 -111 12 l-118 0 -49
-70 c-27 -39 -52 -70 -56 -70 -3 0 -60 76 -125 170 l-120 170 -112 0 c-77 0
-113 -4 -113 -11z"/>
<path d="M1642 568 l3 -513 95 0 95 0 5 287 5 286 139 -269 139 -269 86 0 86
0 132 263 132 262 0 -157 1 -158 100 0 100 0 0 390 0 390 -98 0 -98 0 -174
-375 c-95 -206 -177 -375 -180 -375 -4 0 -89 169 -191 375 l-183 375 -98 0
-98 0 2 -512z"/>
<path d="M270 519 l0 -211 -34 -34 c-34 -34 -35 -34 -125 -34 l-91 0 0 -95 0
-95 89 0 c168 0 281 59 332 172 22 50 24 68 27 281 l4 227 -101 0 -101 0 0
-211z"/>
<path d="M2842 133 l3 -88 403 -3 402 -2 0 90 0 90 -405 0 -406 0 3 -87z"/>
</g>
</svg>
